# xmcd CD database file
#
# Track frame offsets:
#	150
#	16132
#	25149
#	36235
#	48124
#	61375
#	73033
#	101138
#	113521
#	124520
#	134879
#	148390
#	158130
#
# Disc length: 2458 seconds
#
# Revision: 0
# Processed by: cddbd v1.5.2PL0 Copyright (c) Steve Scherf et al.
# Submitted via: NeoAudio 9.9.9
#
DISCID=b709980d
DTITLE=Air French Band - The Virgin Suicides
DYEAR=2000
DGENRE=New Age
TTITLE0=Playground Love
TTITLE1=Clouds Up
TTITLE2=Bathroom Girl
TTITLE3=Cemetary Party
TTITLE4=Dark Messages
TTITLE5=The Word 'Hurricane'
TTITLE6=Dirty Trip
TTITLE7=Highschool Lover
TTITLE8=Afternoon Sister
TTITLE9=Ghost Song
TTITLE10=Empty House
TTITLE11=Dead Bodies
TTITLE12=Suicides Underground
EXTD=YEAR: 2000
EXTT0=
EXTT1=
EXTT2=
EXTT3=
EXTT4=
EXTT5=
EXTT6=
EXTT7=
EXTT8=
EXTT9=
EXTT10=
EXTT11=
EXTT12=
PLAYORDER=
